# xmcd
#
# Track frame offsets:
# 150
# 21637
# 48900
# 78150
# 138825
# 170325
# 207675
# 237825
# 267300
# 291375
#
# Disc length: 4282 seconds
#
#
# Revision: 0
# Processed by: cddbd v1.5.2PL0 Copyright (c) Steve Scherf et al.
# Submitted via: FreeRIP 2.96 
#
DISCID=9110b80a
DTITLE=Che and Ray - The Zurich Session
DYEAR=1988
DGENRE=Boogie Woogie
TTITLE0=Boogie Sneekers
TTITLE1=Dust My Broom
TTITLE2=Ain't gonna let my Boogie roll on you
TTITLE3=I want you to Boogie with me, Babe
TTITLE4=The Roller
TTITLE5=Hey, hey, hey, hey
TTITLE6=C'mon and Boogie
TTITLE7=How I beacame the Boogie- Woogie- Man
TTITLE8=Boogie- Queen
TTITLE9=You know, I love you
EXTD=
EXTT0=
EXTT1=
EXTT2=
EXTT3=
EXTT4=
EXTT5=
EXTT6=
EXTT7=
EXTT8=
EXTT9=
PLAYORDER=
